<?xml version="1.0" encoding="UTF-8" standalone="no"?>
<!DOCTYPE svg PUBLIC "-//W3C//DTD SVG 1.1//EN" "http://www.w3.org/Graphics/SVG/1.1/DTD/svg11.dtd">
<svg width="100%" height="100%" viewBox="0 0 1779 303" version="1.1" xmlns="http://www.w3.org/2000/svg" xmlns:xlink="http://www.w3.org/1999/xlink" xml:space="preserve" xmlns:serif="http://www.serif.com/" style="fill-rule:evenodd;clip-rule:evenodd;stroke-linejoin:round;stroke-miterlimit:2;">
    <g transform="matrix(1,0,0,1,-1000.45,-415.958)">
        <g transform="matrix(1,0,0,1,542.393,327.31)">
            <g transform="matrix(1,0,0,1,0.60662,0.690331)">
                <path d="M573.88,113.279C556.058,127.15 522.44,153.288 499.174,171.362C468.288,195.355 457.03,204.637 457.459,205.755C457.783,206.597 459.873,213.41 462.105,220.893C464.336,228.377 470.358,248.225 475.488,265C480.617,281.775 490.732,315.075 497.967,339C505.201,362.925 511.693,384.3 512.393,386.5L513.666,390.5L542.905,390.765C570.455,391.015 572.113,390.928 571.601,389.265C571.301,388.294 570.097,384.35 568.923,380.5C567.749,376.65 566.652,373.352 566.483,373.172C566.315,372.991 557.42,372.894 546.717,372.956L527.257,373.068L524.72,364.784C523.325,360.228 516.931,339.175 510.511,318C504.091,296.825 494.12,264.042 488.354,245.148C482.588,226.254 478.012,210.679 478.185,210.536C481.015,208.196 604.863,112.185 605.747,111.646C606.52,111.175 609.122,112.618 612.589,115.443C615.666,117.949 618.677,120 619.279,120C620.145,120 628.858,113.774 633.304,109.979C633.937,109.438 612.162,91.575 607.392,88.721C606.783,88.356 591.703,99.407 573.88,113.279ZM598.878,145.794C533.454,196.666 524.534,203.922 524.781,206.064C524.936,207.404 530.468,226.275 537.075,248C543.682,269.725 554.953,306.85 562.123,330.5C569.293,354.15 576.363,377.325 577.834,382L580.509,390.5L766.255,390.5L772.682,369.5C778.295,351.16 785.358,327.911 815.56,228.37C819.086,216.748 822.23,206.563 822.547,205.737C822.956,204.673 818.065,200.305 805.812,190.79C796.29,183.396 764.2,158.468 734.5,135.395C704.8,112.321 678.87,92.209 676.878,90.701L673.257,87.958L598.878,145.794ZM609,160.642C574.075,187.86 545.373,210.481 545.218,210.911C545.063,211.34 553.079,238.424 563.031,271.096C572.983,303.768 582.448,334.887 584.063,340.25C585.678,345.613 588.387,354.611 590.083,360.247C591.779,365.884 593.634,371.059 594.205,371.747C595.01,372.717 605.482,373 640.58,373L685.914,373L688.903,363.25C690.546,357.887 696.814,337.3 702.832,317.5C708.849,297.7 718.61,265.609 724.522,246.186C730.61,226.187 734.887,210.521 734.386,210.063C733.899,209.618 713.332,193.613 688.682,174.495C664.032,155.378 644.232,139.381 644.682,138.948C645.132,138.514 648.407,135.91 651.96,133.162L658.421,128.165L661.96,130.933C663.907,132.455 685.075,148.889 709,167.452C732.925,186.016 753.287,201.958 754.249,202.879C755.91,204.469 755.624,205.794 748.61,229.027C739.606,258.853 719.996,323.449 711.885,350C708.609,360.725 705.696,370.265 705.413,371.2C704.936,372.77 706.703,372.884 728.589,372.7C748.476,372.532 752.412,372.259 753.098,371C753.548,370.175 759.981,349.475 767.394,325C774.808,300.525 785.637,264.797 791.458,245.605C797.28,226.413 801.921,210.612 801.772,210.492C790.427,201.369 674.401,111.736 673.632,111.5C673.009,111.31 643.925,133.423 609,160.642ZM612.207,258.75C610.68,260.262 600.166,270.92 595.48,275.606C590.794,280.292 587.465,284.538 586.683,285.432C585.278,287.038 581.679,292.475 582.427,296.464C583.567,302.54 591.68,308.7 597.226,306.277C607.108,301.959 621.143,284.576 625.319,280.454L632.912,272.959L625.719,265.479C621.762,261.366 618.803,259.478 617.06,257.435C615.474,255.578 614.87,256.111 612.207,258.75ZM599.667,202.667C598.123,204.211 599.288,206.611 604,211.594C609.295,217.192 610.277,220.58 607.429,223.429C604.567,226.29 601.193,225.296 595.503,219.915C588.244,213.05 586.593,213.435 586.208,222.085C585.942,228.086 586.199,229.072 589.208,233.575C593.758,240.383 599.417,243.202 607.745,242.809L613.991,242.514L645.811,274.288L645.708,280.953C645.582,289.131 647.864,294.111 653.835,298.688C658.342,302.144 664.737,303.656 669.975,302.505C674.858,301.433 674.803,299.394 669.752,294.173C662.666,286.849 661.734,284.266 665,281C668.124,277.876 670.422,278.57 676.942,284.607C683.523,290.7 685.409,290.969 686.505,285.975C687.656,280.735 686.143,274.342 682.674,269.794C677.827,263.44 673.924,261.575 665.627,261.651L658.646,261.715L626.333,230.024L626.781,224.624C627.881,211.359 619.37,202 606.207,202C602.976,202 600.033,202.3 599.667,202.667ZM615.841,269.029C614.928,269.562 610.005,274.161 604.901,279.249C599.797,284.337 594.558,289.444 594.796,291.061C595.149,293.47 595.708,294 597.892,294C599.843,294 602.272,292.271 606.952,287.548C610.469,284 615.864,278.586 618.041,276.46C622.5,272.106 622.619,271.762 620.429,269.571C618.619,267.762 618.114,267.702 615.841,269.029ZM673.225,203.527C669.224,205.987 665.62,208 665.216,208C664.812,208 663.897,208.935 663.183,210.078C662.181,211.683 662.154,212.481 663.065,213.578C664.5,215.307 663.939,216.081 655.271,224.33C651.837,227.598 647.364,232.193 645.807,233.685L642.975,236.398L647.164,240.667L651.354,244.936L659.927,236.718C664.642,232.198 670.413,226.012 670.306,225.417C670.017,223.809 673.242,224.041 675.231,225.771C676.672,227.023 677.229,227.055 678.547,225.961C680.793,224.097 684.819,216.551 686.683,213.279C690.17,207.158 690.329,208.237 688.845,206.595C686.45,203.946 683.536,199.095 681.5,199.068C680.95,199.06 677.226,201.067 673.225,203.527Z" style="fill:white;"/>
            </g>
        </g>
        <g transform="matrix(1,0,0,1,542.393,327.31)">
            <g transform="matrix(1,0,0,1,0.60662,0.690331)">
                <path d="M612.207,258.75C610.68,260.262 600.166,270.92 595.48,275.606C590.794,280.292 587.465,284.538 586.683,285.432C585.278,287.038 581.679,292.475 582.427,296.464C583.567,302.54 591.68,308.7 597.226,306.277C607.108,301.959 621.143,284.576 625.319,280.454L632.912,272.959L625.719,265.479C621.762,261.366 618.803,259.478 617.06,257.435C615.474,255.578 614.87,256.111 612.207,258.75ZM615.841,269.029C614.928,269.562 610.005,274.161 604.901,279.249C599.797,284.337 594.558,289.444 594.796,291.061C595.149,293.47 595.708,294 597.892,294C599.843,294 602.272,292.271 606.952,287.548C610.469,284 615.864,278.586 618.041,276.46C622.5,272.106 622.619,271.762 620.429,269.571C618.619,267.762 618.114,267.702 615.841,269.029Z" style="fill:rgb(255,204,39);"/>
            </g>
        </g>
        <g transform="matrix(1,0,0,1,542.393,327.31)">
            <g transform="matrix(1,0,0,1,0.60662,0.690331)">
                <path d="M673.225,203.527C669.224,205.987 665.62,208 665.216,208C664.812,208 663.897,208.935 663.183,210.078C662.181,211.683 662.154,212.481 663.065,213.578C664.5,215.307 663.939,216.081 655.271,224.33C651.837,227.598 647.364,232.193 645.807,233.685L642.975,236.398L647.164,240.667L651.354,244.936L659.927,236.718C664.642,232.198 670.413,226.012 670.306,225.417C670.017,223.809 673.242,224.041 675.231,225.771C676.672,227.023 677.229,227.055 678.547,225.961C680.793,224.097 684.819,216.551 686.683,213.279C690.17,207.158 690.329,208.237 688.845,206.595C686.45,203.946 683.536,199.095 681.5,199.068C680.95,199.06 677.226,201.067 673.225,203.527Z" style="fill:rgb(255,204,39);"/>
            </g>
        </g>
        <g transform="matrix(1,0,0,1,542.393,327.31)">
            <g transform="matrix(13.1484,0,0,13.1484,-2604.35,-6680.57)">
                <path d="M271.222,531.777C269.958,531.777 268.912,531.359 268.084,530.523C267.256,529.687 266.842,528.645 266.842,527.397C266.842,526.149 267.256,525.107 268.084,524.271C268.912,523.435 269.958,523.017 271.222,523.017C271.982,523.017 272.686,523.197 273.334,523.557C273.982,523.917 274.49,524.401 274.858,525.009L272.998,526.077C272.838,525.781 272.6,525.547 272.284,525.375C271.968,525.203 271.614,525.117 271.222,525.117C270.55,525.117 270.008,525.327 269.596,525.747C269.184,526.167 268.978,526.717 268.978,527.397C268.978,528.077 269.184,528.627 269.596,529.047C270.008,529.467 270.55,529.677 271.222,529.677C271.614,529.677 271.968,529.591 272.284,529.419C272.6,529.247 272.838,529.009 272.998,528.705L274.858,529.785C274.49,530.401 273.984,530.887 273.34,531.243C272.696,531.599 271.99,531.777 271.222,531.777Z" style="fill:white;fill-rule:nonzero;"/>
                <path d="M281.434,523.197L281.434,525.273L279.358,525.273L279.358,531.597L277.21,531.597L277.21,525.273L275.134,525.273L275.134,523.197L281.434,523.197Z" style="fill:white;fill-rule:nonzero;"/>
                <path d="M285.478,523.197C286.326,523.197 287.038,523.473 287.614,524.025C288.19,524.577 288.478,525.281 288.478,526.137C288.478,526.993 288.19,527.697 287.614,528.249C287.038,528.801 286.326,529.077 285.478,529.077L284.362,529.077L284.362,531.597L282.214,531.597L282.214,523.197L285.478,523.197ZM285.478,527.037C285.718,527.037 285.92,526.953 286.084,526.785C286.248,526.617 286.33,526.401 286.33,526.137C286.33,525.873 286.248,525.659 286.084,525.495C285.92,525.331 285.718,525.249 285.478,525.249L284.362,525.249L284.362,527.037L285.478,527.037Z" style="fill:white;fill-rule:nonzero;"/>
                <path d="M296.512,530.511C295.66,531.355 294.618,531.777 293.386,531.777C292.154,531.777 291.112,531.355 290.26,530.511C289.408,529.667 288.982,528.629 288.982,527.397C288.982,526.165 289.408,525.127 290.26,524.283C291.112,523.439 292.154,523.017 293.386,523.017C294.618,523.017 295.66,523.439 296.512,524.283C297.364,525.127 297.79,526.165 297.79,527.397C297.79,528.629 297.364,529.667 296.512,530.511ZM291.766,529.035C292.198,529.463 292.738,529.677 293.386,529.677C294.034,529.677 294.574,529.463 295.006,529.035C295.438,528.607 295.654,528.061 295.654,527.397C295.654,526.733 295.438,526.187 295.006,525.759C294.574,525.331 294.034,525.117 293.386,525.117C292.738,525.117 292.198,525.331 291.766,525.759C291.334,526.187 291.118,526.733 291.118,527.397C291.118,528.061 291.334,528.607 291.766,529.035Z" style="fill:white;fill-rule:nonzero;"/>
                <path d="M300.226,522.549L300.226,520.869L304.102,520.869L304.102,522.549L300.226,522.549ZM303.418,531.597L303.418,527.373L300.454,531.597L298.786,531.597L298.786,523.197L300.934,523.197L300.934,527.421L303.898,523.197L305.554,523.197L305.554,531.597L303.418,531.597Z" style="fill:white;fill-rule:nonzero;"/>
                <path d="M316.57,531.597L314.17,531.597L311.758,527.841L311.758,531.597L309.61,531.597L309.61,523.197L311.758,523.197L311.758,526.725L314.05,523.197L316.45,523.197L313.786,527.277L316.57,531.597Z" style="fill:rgb(255,204,42);fill-rule:nonzero;"/>
                <path d="M323.728,530.511C322.876,531.355 321.834,531.777 320.602,531.777C319.37,531.777 318.328,531.355 317.476,530.511C316.624,529.667 316.198,528.629 316.198,527.397C316.198,526.165 316.624,525.127 317.476,524.283C318.328,523.439 319.37,523.017 320.602,523.017C321.834,523.017 322.876,523.439 323.728,524.283C324.58,525.127 325.006,526.165 325.006,527.397C325.006,528.629 324.58,529.667 323.728,530.511ZM318.982,529.035C319.414,529.463 319.954,529.677 320.602,529.677C321.25,529.677 321.79,529.463 322.222,529.035C322.654,528.607 322.87,528.061 322.87,527.397C322.87,526.733 322.654,526.187 322.222,525.759C321.79,525.331 321.25,525.117 320.602,525.117C319.954,525.117 319.414,525.331 318.982,525.759C318.55,526.187 318.334,526.733 318.334,527.397C318.334,528.061 318.55,528.607 318.982,529.035Z" style="fill:rgb(255,204,42);fill-rule:nonzero;"/>
                <path d="M334.57,523.197L334.57,531.597L332.434,531.597L332.434,527.073L330.394,530.445L330.178,530.445L328.15,527.085L328.15,531.597L326.002,531.597L326.002,523.197L328.15,523.197L330.286,526.785L332.434,523.197L334.57,523.197Z" style="fill:rgb(255,204,42);fill-rule:nonzero;"/>
                <path d="M344.014,525.075C344.67,525.679 344.998,526.453 344.998,527.397C344.998,528.341 344.67,529.115 344.014,529.719C343.358,530.323 342.446,530.697 341.278,530.841L341.278,531.837L339.214,531.837L339.214,530.841C338.046,530.697 337.132,530.323 336.472,529.719C335.812,529.115 335.482,528.341 335.482,527.397C335.482,526.453 335.812,525.679 336.472,525.075C337.132,524.471 338.046,524.097 339.214,523.953L339.214,522.957L341.278,522.957L341.278,523.953C342.446,524.097 343.358,524.471 344.014,525.075ZM337.63,527.397C337.63,528.229 338.158,528.721 339.214,528.873L339.214,525.885C338.67,525.965 338.27,526.129 338.014,526.377C337.758,526.625 337.63,526.965 337.63,527.397ZM341.278,528.873C341.822,528.793 342.222,528.631 342.478,528.387C342.734,528.143 342.862,527.813 342.862,527.397C342.862,526.965 342.734,526.625 342.478,526.377C342.222,526.129 341.822,525.965 341.278,525.885L341.278,528.873Z" style="fill:rgb(255,204,42);fill-rule:nonzero;"/>
                <path d="M353.104,530.511C352.252,531.355 351.21,531.777 349.978,531.777C348.746,531.777 347.704,531.355 346.852,530.511C346,529.667 345.574,528.629 345.574,527.397C345.574,526.165 346,525.127 346.852,524.283C347.704,523.439 348.746,523.017 349.978,523.017C351.21,523.017 352.252,523.439 353.104,524.283C353.956,525.127 354.382,526.165 354.382,527.397C354.382,528.629 353.956,529.667 353.104,530.511ZM348.358,529.035C348.79,529.463 349.33,529.677 349.978,529.677C350.626,529.677 351.166,529.463 351.598,529.035C352.03,528.607 352.246,528.061 352.246,527.397C352.246,526.733 352.03,526.187 351.598,525.759C351.166,525.331 350.626,525.117 349.978,525.117C349.33,525.117 348.79,525.331 348.358,525.759C347.926,526.187 347.71,526.733 347.71,527.397C347.71,528.061 347.926,528.607 348.358,529.035Z" style="fill:rgb(255,204,42);fill-rule:nonzero;"/>
                <path d="M358.642,523.197C359.49,523.197 360.202,523.473 360.778,524.025C361.354,524.577 361.642,525.281 361.642,526.137C361.642,526.993 361.354,527.697 360.778,528.249C360.202,528.801 359.49,529.077 358.642,529.077L357.526,529.077L357.526,531.597L355.378,531.597L355.378,523.197L358.642,523.197ZM358.642,527.037C358.882,527.037 359.084,526.953 359.248,526.785C359.412,526.617 359.494,526.401 359.494,526.137C359.494,525.873 359.412,525.659 359.248,525.495C359.084,525.331 358.882,525.249 358.642,525.249L357.526,525.249L357.526,527.037L358.642,527.037Z" style="fill:rgb(255,204,42);fill-rule:nonzero;"/>
                <path d="M368.182,523.197L368.182,525.273L366.106,525.273L366.106,531.597L363.958,531.597L363.958,525.273L361.882,525.273L361.882,523.197L368.182,523.197Z" style="fill:rgb(255,204,42);fill-rule:nonzero;"/>
            </g>
        </g>
    </g>
</svg>
