<?xml version="1.0" encoding="UTF-8" standalone="no"?>
<!DOCTYPE svg PUBLIC "-//W3C//DTD SVG 1.1//EN" "http://www.w3.org/Graphics/SVG/1.1/DTD/svg11.dtd">
<svg width="100%" height="100%" viewBox="0 0 366 303" version="1.1" xmlns="http://www.w3.org/2000/svg" xmlns:xlink="http://www.w3.org/1999/xlink" xml:space="preserve" xmlns:serif="http://www.serif.com/" style="fill-rule:evenodd;clip-rule:evenodd;stroke-linejoin:round;stroke-miterlimit:2;">
    <g transform="matrix(1,0,0,1,-1000.45,-415.958)">
        <g transform="matrix(1,0,0,1,542.393,327.31)">
            <g transform="matrix(1,0,0,1,0.60662,0.690331)">
                <path d="M573.88,113.279C556.058,127.15 522.44,153.288 499.174,171.362C468.288,195.355 457.03,204.637 457.459,205.755C457.783,206.597 459.873,213.41 462.105,220.893C464.336,228.377 470.358,248.225 475.488,265C480.617,281.775 490.732,315.075 497.967,339C505.201,362.925 511.693,384.3 512.393,386.5L513.666,390.5L542.905,390.765C570.455,391.015 572.113,390.928 571.601,389.265C571.301,388.294 570.097,384.35 568.923,380.5C567.749,376.65 566.652,373.352 566.483,373.172C566.315,372.991 557.42,372.894 546.717,372.956L527.257,373.068L524.72,364.784C523.325,360.228 516.931,339.175 510.511,318C504.091,296.825 494.12,264.042 488.354,245.148C482.588,226.254 478.012,210.679 478.185,210.536C481.015,208.196 604.863,112.185 605.747,111.646C606.52,111.175 609.122,112.618 612.589,115.443C615.666,117.949 618.677,120 619.279,120C620.145,120 628.858,113.774 633.304,109.979C633.937,109.438 612.162,91.575 607.392,88.721C606.783,88.356 591.703,99.407 573.88,113.279ZM598.878,145.794C533.454,196.666 524.534,203.922 524.781,206.064C524.936,207.404 530.468,226.275 537.075,248C543.682,269.725 554.953,306.85 562.123,330.5C569.293,354.15 576.363,377.325 577.834,382L580.509,390.5L766.255,390.5L772.682,369.5C778.295,351.16 785.358,327.911 815.56,228.37C819.086,216.748 822.23,206.563 822.547,205.737C822.956,204.673 818.065,200.305 805.812,190.79C796.29,183.396 764.2,158.468 734.5,135.395C704.8,112.321 678.87,92.209 676.878,90.701L673.257,87.958L598.878,145.794ZM609,160.642C574.075,187.86 545.373,210.481 545.218,210.911C545.063,211.34 553.079,238.424 563.031,271.096C572.983,303.768 582.448,334.887 584.063,340.25C585.678,345.613 588.387,354.611 590.083,360.247C591.779,365.884 593.634,371.059 594.205,371.747C595.01,372.717 605.482,373 640.58,373L685.914,373L688.903,363.25C690.546,357.887 696.814,337.3 702.832,317.5C708.849,297.7 718.61,265.609 724.522,246.186C730.61,226.187 734.887,210.521 734.386,210.063C733.899,209.618 713.332,193.613 688.682,174.495C664.032,155.378 644.232,139.381 644.682,138.948C645.132,138.514 648.407,135.91 651.96,133.162L658.421,128.165L661.96,130.933C663.907,132.455 685.075,148.889 709,167.452C732.925,186.016 753.287,201.958 754.249,202.879C755.91,204.469 755.624,205.794 748.61,229.027C739.606,258.853 719.996,323.449 711.885,350C708.609,360.725 705.696,370.265 705.413,371.2C704.936,372.77 706.703,372.884 728.589,372.7C748.476,372.532 752.412,372.259 753.098,371C753.548,370.175 759.981,349.475 767.394,325C774.808,300.525 785.637,264.797 791.458,245.605C797.28,226.413 801.921,210.612 801.772,210.492C790.427,201.369 674.401,111.736 673.632,111.5C673.009,111.31 643.925,133.423 609,160.642ZM612.207,258.75C610.68,260.262 600.166,270.92 595.48,275.606C590.794,280.292 587.465,284.538 586.683,285.432C585.278,287.038 581.679,292.475 582.427,296.464C583.567,302.54 591.68,308.7 597.226,306.277C607.108,301.959 621.143,284.576 625.319,280.454L632.912,272.959L625.719,265.479C621.762,261.366 618.803,259.478 617.06,257.435C615.474,255.578 614.87,256.111 612.207,258.75ZM599.667,202.667C598.123,204.211 599.288,206.611 604,211.594C609.295,217.192 610.277,220.58 607.429,223.429C604.567,226.29 601.193,225.296 595.503,219.915C588.244,213.05 586.593,213.435 586.208,222.085C585.942,228.086 586.199,229.072 589.208,233.575C593.758,240.383 599.417,243.202 607.745,242.809L613.991,242.514L645.811,274.288L645.708,280.953C645.582,289.131 647.864,294.111 653.835,298.688C658.342,302.144 664.737,303.656 669.975,302.505C674.858,301.433 674.803,299.394 669.752,294.173C662.666,286.849 661.734,284.266 665,281C668.124,277.876 670.422,278.57 676.942,284.607C683.523,290.7 685.409,290.969 686.505,285.975C687.656,280.735 686.143,274.342 682.674,269.794C677.827,263.44 673.924,261.575 665.627,261.651L658.646,261.715L626.333,230.024L626.781,224.624C627.881,211.359 619.37,202 606.207,202C602.976,202 600.033,202.3 599.667,202.667ZM615.841,269.029C614.928,269.562 610.005,274.161 604.901,279.249C599.797,284.337 594.558,289.444 594.796,291.061C595.149,293.47 595.708,294 597.892,294C599.843,294 602.272,292.271 606.952,287.548C610.469,284 615.864,278.586 618.041,276.46C622.5,272.106 622.619,271.762 620.429,269.571C618.619,267.762 618.114,267.702 615.841,269.029ZM673.225,203.527C669.224,205.987 665.62,208 665.216,208C664.812,208 663.897,208.935 663.183,210.078C662.181,211.683 662.154,212.481 663.065,213.578C664.5,215.307 663.939,216.081 655.271,224.33C651.837,227.598 647.364,232.193 645.807,233.685L642.975,236.398L647.164,240.667L651.354,244.936L659.927,236.718C664.642,232.198 670.413,226.012 670.306,225.417C670.017,223.809 673.242,224.041 675.231,225.771C676.672,227.023 677.229,227.055 678.547,225.961C680.793,224.097 684.819,216.551 686.683,213.279C690.17,207.158 690.329,208.237 688.845,206.595C686.45,203.946 683.536,199.095 681.5,199.068C680.95,199.06 677.226,201.067 673.225,203.527Z" style="fill:white;"/>
            </g>
        </g>
        <g transform="matrix(1,0,0,1,542.393,327.31)">
            <g transform="matrix(1,0,0,1,0.60662,0.690331)">
                <path d="M612.207,258.75C610.68,260.262 600.166,270.92 595.48,275.606C590.794,280.292 587.465,284.538 586.683,285.432C585.278,287.038 581.679,292.475 582.427,296.464C583.567,302.54 591.68,308.7 597.226,306.277C607.108,301.959 621.143,284.576 625.319,280.454L632.912,272.959L625.719,265.479C621.762,261.366 618.803,259.478 617.06,257.435C615.474,255.578 614.87,256.111 612.207,258.75ZM615.841,269.029C614.928,269.562 610.005,274.161 604.901,279.249C599.797,284.337 594.558,289.444 594.796,291.061C595.149,293.47 595.708,294 597.892,294C599.843,294 602.272,292.271 606.952,287.548C610.469,284 615.864,278.586 618.041,276.46C622.5,272.106 622.619,271.762 620.429,269.571C618.619,267.762 618.114,267.702 615.841,269.029Z" style="fill:rgb(255,204,39);"/>
            </g>
        </g>
        <g transform="matrix(1,0,0,1,542.393,327.31)">
            <g transform="matrix(1,0,0,1,0.60662,0.690331)">
                <path d="M673.225,203.527C669.224,205.987 665.62,208 665.216,208C664.812,208 663.897,208.935 663.183,210.078C662.181,211.683 662.154,212.481 663.065,213.578C664.5,215.307 663.939,216.081 655.271,224.33C651.837,227.598 647.364,232.193 645.807,233.685L642.975,236.398L647.164,240.667L651.354,244.936L659.927,236.718C664.642,232.198 670.413,226.012 670.306,225.417C670.017,223.809 673.242,224.041 675.231,225.771C676.672,227.023 677.229,227.055 678.547,225.961C680.793,224.097 684.819,216.551 686.683,213.279C690.17,207.158 690.329,208.237 688.845,206.595C686.45,203.946 683.536,199.095 681.5,199.068C680.95,199.06 677.226,201.067 673.225,203.527Z" style="fill:rgb(255,204,39);"/>
            </g>
        </g>
    </g>
</svg>
